<svg width="38" height="30" viewBox="0 0 38 30" fill="none" xmlns="http://www.w3.org/2000/svg">
<g filter="url(#filter0_d_5_220)">
<path d="M15.3272 21.5705L15.3189 21.5669L15.2927 21.5527C15.1396 21.4686 14.9877 21.3823 14.8371 21.2938C13.0263 20.2198 11.334 18.958 9.7884 17.5296C7.05113 14.9801 4.15088 11.1969 4.15088 6.53726C4.15088 3.06038 7.08206 0.303093 10.6199 0.303093C11.6034 0.298285 12.5754 0.514866 13.4635 0.936729C14.3515 1.35859 15.1329 1.97488 15.7495 2.73976C16.3662 1.97472 17.1478 1.35834 18.0361 0.93647C18.9244 0.514601 19.8965 0.298106 20.8802 0.303093C24.4169 0.303093 27.3481 3.06038 27.3481 6.53726C27.3481 11.198 24.4479 14.9813 21.7106 17.5284C20.165 18.9569 18.4727 20.2186 16.6619 21.2926C16.5113 21.3815 16.3594 21.4682 16.2063 21.5527L16.1801 21.5669L16.1718 21.5717L16.1682 21.5729C16.0392 21.6411 15.8955 21.6768 15.7495 21.6768C15.6035 21.6768 15.4597 21.6411 15.3307 21.5729L15.3272 21.5705Z" fill="white"/>
<path d="M25.8374 19.6078L29.0901 13.2634H26.8469V9.15819L23.482 15.5026H25.8374V19.6078ZM26.2861 21.8471C25.2517 21.8471 24.2796 21.6511 23.3699 21.2593C22.4601 20.8674 21.6687 20.3356 20.9958 19.6638C20.3228 18.9921 19.79 18.2021 19.3974 17.294C19.0049 16.3859 18.8086 15.4155 18.8086 14.383C18.8086 13.3505 19.0049 12.3802 19.3974 11.472C19.79 10.5639 20.3228 9.77397 20.9958 9.10221C21.6687 8.43044 22.4601 7.89863 23.3699 7.50677C24.2796 7.11491 25.2517 6.91898 26.2861 6.91898C27.3205 6.91898 28.2925 7.11491 29.2023 7.50677C30.1121 7.89863 30.9034 8.43044 31.5764 9.10221C32.2494 9.77397 32.7822 10.5639 33.1747 11.472C33.5673 12.3802 33.7636 13.3505 33.7636 14.383C33.7636 15.4155 33.5673 16.3859 33.1747 17.294C32.7822 18.2021 32.2494 18.9921 31.5764 19.6638C30.9034 20.3356 30.1121 20.8674 29.2023 21.2593C28.2925 21.6511 27.3205 21.8471 26.2861 21.8471Z" fill="#894189"/>
<path d="M26.218 19.1328L29.175 13.3651H27.1357V9.63312L24.0767 15.4008H26.218V19.1328ZM26.6258 21.1685C25.6855 21.1685 24.8018 20.9903 23.9747 20.6341C23.1477 20.2779 22.4283 19.7944 21.8165 19.1837C21.2047 18.573 20.7203 17.8549 20.3634 17.0293C20.0066 16.2037 19.8281 15.3216 19.8281 14.383C19.8281 13.4443 20.0066 12.5622 20.3634 11.7366C20.7203 10.9111 21.2047 10.1929 21.8165 9.58223C22.4283 8.97153 23.1477 8.48807 23.9747 8.13183C24.8018 7.77559 25.6855 7.59747 26.6258 7.59747C27.5662 7.59747 28.4499 7.77559 29.277 8.13183C30.104 8.48807 30.8234 8.97153 31.4352 9.58223C32.047 10.1929 32.5314 10.9111 32.8882 11.7366C33.2451 12.5622 33.4236 13.4443 33.4236 14.383C33.4236 15.3216 33.2451 16.2037 32.8882 17.0293C32.5314 17.8549 32.047 18.573 31.4352 19.1837C30.8234 19.7944 30.104 20.2779 29.277 20.6341C28.4499 20.9903 27.5662 21.1685 26.6258 21.1685Z" fill="white"/>
</g>
<defs>
<filter id="filter0_d_5_220" x="0.150879" y="0.303009" width="37.6128" height="29.544" filterUnits="userSpaceOnUse" color-interpolation-filters="sRGB">
<feFlood flood-opacity="0" result="BackgroundImageFix"/>
<feColorMatrix in="SourceAlpha" type="matrix" values="0 0 0 0 0 0 0 0 0 0 0 0 0 0 0 0 0 0 127 0" result="hardAlpha"/>
<feOffset dy="4"/>
<feGaussianBlur stdDeviation="2"/>
<feComposite in2="hardAlpha" operator="out"/>
<feColorMatrix type="matrix" values="0 0 0 0 0 0 0 0 0 0 0 0 0 0 0 0 0 0 0.25 0"/>
<feBlend mode="normal" in2="BackgroundImageFix" result="effect1_dropShadow_5_220"/>
<feBlend mode="normal" in="SourceGraphic" in2="effect1_dropShadow_5_220" result="shape"/>
</filter>
</defs>
</svg>
