<svg width="23" height="22" viewBox="0 0 23 22" fill="none" xmlns="http://www.w3.org/2000/svg">
<path d="M10.3866 18.6182H12.2754V17.2715C13.1749 17.1099 13.9484 16.7598 14.5959 16.2211C15.2435 15.6824 15.5673 14.8834 15.5673 13.824C15.5673 13.0698 15.3515 12.3785 14.9197 11.75C14.488 11.1216 13.6246 10.5739 12.3294 10.107C11.2501 9.74792 10.5036 9.43369 10.0898 9.16435C9.6761 8.895 9.46923 8.5269 9.46923 8.06005C9.46923 7.59319 9.63563 7.22509 9.96841 6.95574C10.3012 6.6864 10.7824 6.55173 11.412 6.55173C11.9876 6.55173 12.4373 6.69089 12.7611 6.96921C13.0849 7.24753 13.3188 7.59319 13.4627 8.00618L15.1896 7.30589C14.9917 6.67743 14.6274 6.12976 14.0968 5.66291C13.5661 5.19605 12.977 4.93568 12.3294 4.88182V3.53511H10.4406V4.88182C9.54119 5.07933 8.83964 5.47437 8.33596 6.06692C7.83228 6.65947 7.58044 7.32385 7.58044 8.06005C7.58044 8.90398 7.82779 9.58631 8.32247 10.107C8.81715 10.6278 9.59515 11.0767 10.6565 11.4537C11.7897 11.8667 12.5767 12.2348 13.0175 12.558C13.4582 12.8813 13.6785 13.3032 13.6785 13.824C13.6785 14.4165 13.4672 14.8519 13.0444 15.1303C12.6217 15.4086 12.1135 15.5477 11.5199 15.5477C10.9263 15.5477 10.4001 15.3637 9.94143 14.9956C9.48273 14.6275 9.14544 14.0753 8.92958 13.3391L7.14872 14.0394C7.40056 14.9013 7.79181 15.5971 8.32247 16.1268C8.85313 16.6565 9.54119 17.0201 10.3866 17.2177V18.6182ZM11.358 21.8503C9.86498 21.8503 8.46188 21.5675 7.14872 21.0019C5.83556 20.4363 4.6933 19.6687 3.72192 18.699C2.75054 17.7294 1.98153 16.5892 1.4149 15.2784C0.84826 13.9676 0.564941 12.567 0.564941 11.0767C0.564941 9.58631 0.84826 8.18574 1.4149 6.87494C1.98153 5.56415 2.75054 4.42393 3.72192 3.4543C4.6933 2.48468 5.83556 1.71705 7.14872 1.15143C8.46188 0.585818 9.86498 0.303009 11.358 0.303009C12.8511 0.303009 14.2542 0.585818 15.5673 1.15143C16.8805 1.71705 18.0228 2.48468 18.9941 3.4543C19.9655 4.42393 20.7345 5.56415 21.3011 6.87494C21.8678 8.18574 22.1511 9.58631 22.1511 11.0767C22.1511 12.567 21.8678 13.9676 21.3011 15.2784C20.7345 16.5892 19.9655 17.7294 18.9941 18.699C18.0228 19.6687 16.8805 20.4363 15.5673 21.0019C14.2542 21.5675 12.8511 21.8503 11.358 21.8503Z" fill="white"/>
</svg>
